<?xml version="1.0" encoding="UTF-8"?>
<svg xmlns="http://www.w3.org/2000/svg" xmlns:xlink="http://www.w3.org/1999/xlink" version="1.1" id="Capa_1" x="0px" y="0px" viewBox="0 0 512 512" style="enable-background:new 0 0 512 512;" xml:space="preserve" width="512" height="512">
<g>
	<g id="XMLID_950_">
		
			<polyline id="XMLID_966_" style="fill:none;stroke:#000000;stroke-width:20;stroke-linecap:round;stroke-linejoin:round;stroke-miterlimit:10;" points="&#10;&#9;&#9;&#9;313.951,165.928 203.192,470.235 164.268,502 154.645,453.261 270.893,133.871 &#9;&#9;"/>
	</g>
	<g id="XMLID_1007_">
		
			<polyline id="XMLID_318_" style="fill:none;stroke:#000000;stroke-width:20;stroke-linecap:round;stroke-linejoin:round;stroke-miterlimit:10;" points="&#10;&#9;&#9;&#9;315.739,166.052 426.453,470.235 465.377,502 475,453.261 358.594,133.438 &#9;&#9;"/>
	</g>
	
		<circle id="XMLID_2782_" style="fill:none;stroke:#000000;stroke-width:20;stroke-linecap:round;stroke-linejoin:round;stroke-miterlimit:10;" cx="314.822" cy="119.243" r="45.786"/>
	
		<path id="XMLID_2780_" style="fill:none;stroke:#000000;stroke-width:20;stroke-linecap:round;stroke-linejoin:round;stroke-miterlimit:10;" d="&#10;&#9;&#9;M291.93,76.128V32.893C291.93,20.249,302.179,10,314.822,10h0c12.643,0,22.893,10.249,22.893,22.893v43.236"/>
	
		<line id="XMLID_2773_" style="fill:none;stroke:#000000;stroke-width:20;stroke-linecap:round;stroke-linejoin:round;stroke-miterlimit:10;" x1="314.822" y1="119.243" x2="314.822" y2="119.243"/>
	
		<line style="fill:none;stroke:#000000;stroke-width:20;stroke-linecap:round;stroke-linejoin:round;stroke-miterlimit:10;" x1="265.794" y1="302.986" x2="363.851" y2="302.986"/>
	
		<line style="fill:none;stroke:#000000;stroke-width:20;stroke-linecap:round;stroke-linejoin:round;stroke-miterlimit:10;" x1="423.543" y1="302.986" x2="455.458" y2="302.986"/>
	
		<line style="fill:none;stroke:#000000;stroke-width:20;stroke-linecap:round;stroke-linejoin:round;stroke-miterlimit:10;" x1="206.102" y1="302.986" x2="174.187" y2="302.986"/>
	
		<line style="fill:none;stroke:#000000;stroke-width:20;stroke-linecap:round;stroke-linejoin:round;stroke-miterlimit:10;" x1="314.822" y1="286.375" x2="314.822" y2="319.598"/>
	
		<polyline id="XMLID_946_" style="fill:none;stroke:#000000;stroke-width:20;stroke-linecap:round;stroke-linejoin:round;stroke-miterlimit:10;" points="&#10;&#9;&#9;93,182.743 93,87.446 37,87.446 37,261.978 &#9;"/>
	
		<polyline id="XMLID_1019_" style="fill:none;stroke:#000000;stroke-width:20;stroke-linecap:round;stroke-linejoin:round;stroke-miterlimit:10;" points="&#10;&#9;&#9;37,261.978 37,356.151 65,424.554 93,356.151 93,272.743 &#9;"/>
	
		<line id="XMLID_1018_" style="fill:none;stroke:#000000;stroke-width:20;stroke-linecap:round;stroke-linejoin:round;stroke-miterlimit:10;" x1="40.281" y1="356.151" x2="91.666" y2="356.151"/>
	
		<line style="fill:none;stroke:#000000;stroke-width:20;stroke-linecap:round;stroke-linejoin:round;stroke-miterlimit:10;" x1="93" y1="227.743" x2="93" y2="227.743"/>
</g>















</svg>
