<?xml version="1.0" encoding="iso-8859-1"?>
<!-- Generator: Adobe Illustrator 19.0.0, SVG Export Plug-In . SVG Version: 6.00 Build 0)  -->
<svg version="1.1" id="Capa_1" xmlns="http://www.w3.org/2000/svg" xmlns:xlink="http://www.w3.org/1999/xlink" x="0px" y="0px"
	 viewBox="0 0 512 512" style="enable-background:new 0 0 512 512;" xml:space="preserve">
<g>
	<g>
		<path d="M270.585,443.428L82.268,255.112c-2.86-2.86-7.16-3.717-10.897-2.167c-3.737,1.548-6.173,5.194-6.173,9.239v188.315
			c0,5.523,4.477,10,10,10h188.315c4.044,0,7.691-2.437,9.239-6.173C274.3,450.59,273.444,446.288,270.585,443.428z M85.198,440.498
			L85.198,440.498V286.327l154.171,154.171H85.198z"/>
	</g>
</g>
<g>
	<g>
		<path d="M424.931,494.928L30.768,100.765c-2.86-2.86-7.162-3.717-10.898-2.167c-3.737,1.548-6.173,5.194-6.173,9.239V502
			c0,5.523,4.477,10,10,10h394.163c4.044,0,7.691-2.437,9.239-6.173S427.791,497.789,424.931,494.928z M33.697,492.001v-0.002
			v-360.02l37.963,37.963l-15.081,15.082c-3.905,3.905-3.905,10.237,0,14.143c1.953,1.953,4.512,2.929,7.071,2.929
			c2.559,0,5.119-0.976,7.071-2.929l15.082-15.082l39.847,39.847l-15.082,15.082c-3.905,3.905-3.905,10.237,0,14.143
			c1.953,1.953,4.512,2.929,7.071,2.929s5.119-0.976,7.071-2.929l15.082-15.082l39.847,39.847l-15.082,15.082
			c-3.905,3.905-3.905,10.237,0,14.143c1.953,1.953,4.512,2.929,7.071,2.929s5.119-0.976,7.071-2.929l15.082-15.082l39.847,39.847
			l-15.082,15.082c-3.905,3.905-3.905,10.237,0,14.143c1.953,1.953,4.512,2.929,7.071,2.929c2.559,0,5.119-0.976,7.071-2.929
			l15.082-15.082l39.847,39.847l-15.082,15.082c-3.905,3.905-3.905,10.237,0,14.143c1.953,1.953,4.512,2.929,7.071,2.929
			c2.559,0,5.119-0.976,7.071-2.929l15.082-15.082l39.847,39.847l-15.082,15.082c-3.905,3.905-3.905,10.237,0,14.143
			c1.953,1.953,4.512,2.929,7.071,2.929s5.119-0.976,7.071-2.929l15.082-15.082l37.963,37.963H33.697z"/>
	</g>
</g>
<g>
	<g>
		<path d="M498.267,440.66l-6.695-77.529c-0.203-2.347-1.228-4.547-2.893-6.212l-1.154-1.153c-0.002-0.002-0.003-0.003-0.005-0.005
			L276.521,144.762c-14.879-14.879-39.093-14.88-53.974,0l-31.001,31.001c-7.208,7.208-11.178,16.792-11.178,26.987
			c0,10.194,3.97,19.779,11.178,26.988l210.998,210.997l1.158,1.158c1.666,1.666,3.865,2.691,6.212,2.894l77.529,6.696
			c0.288,0.025,0.575,0.037,0.861,0.037c2.64,0,5.188-1.046,7.071-2.929C497.463,446.504,498.521,443.601,498.267,440.66z
			 M292.327,188.853l173.978,173.978l-34.868,34.868L257.459,223.721l13.045-13.045l128.358,128.359
			c1.953,1.953,4.512,2.929,7.071,2.929s5.119-0.976,7.071-2.929c3.905-3.905,3.905-10.237,0-14.143L284.648,196.532
			L292.327,188.853z M205.69,215.595c-3.432-3.43-5.321-7.992-5.321-12.844c0-4.852,1.889-9.413,5.32-12.844l31.001-31.001
			c3.542-3.542,8.192-5.312,12.845-5.312c4.651,0,9.304,1.771,12.844,5.312l15.805,15.804L221.494,231.4L205.69,215.595z
			 M409.614,419.521L235.636,245.544l7.679-7.679l173.978,173.978L409.614,419.521z M430.897,426.525l42.411-42.411l4.009,46.42
			L430.897,426.525z"/>
	</g>
</g>
<g>
	<g>
		<path d="M440.935,355.206c-0.12-0.63-0.32-1.26-0.57-1.87c-0.25-0.6-0.56-1.18-0.92-1.72c-0.36-0.55-0.78-1.06-1.24-1.53
			c-2.32-2.32-5.77-3.38-9.02-2.73c-0.64,0.13-1.27,0.32-1.87,0.57c-0.61,0.25-1.19,0.56-1.73,0.92c-0.55,0.37-1.06,0.78-1.52,1.24
			c-0.46,0.47-0.88,0.98-1.24,1.53c-0.36,0.54-0.67,1.12-0.92,1.72c-0.25,0.61-0.45,1.24-0.57,1.87c-0.13,0.65-0.2,1.31-0.2,1.96
			s0.07,1.31,0.2,1.95c0.12,0.64,0.32,1.27,0.57,1.87c0.25,0.6,0.56,1.19,0.92,1.73c0.36,0.55,0.78,1.06,1.24,1.52
			c0.46,0.46,0.97,0.88,1.52,1.24c0.54,0.36,1.12,0.67,1.73,0.92c0.6,0.25,1.23,0.44,1.87,0.57c0.64,0.13,1.3,0.2,1.95,0.2
			c2.63,0,5.21-1.07,7.07-2.93c0.46-0.46,0.88-0.97,1.24-1.52c0.36-0.54,0.67-1.13,0.92-1.73c0.25-0.6,0.45-1.23,0.57-1.87
			c0.13-0.64,0.2-1.3,0.2-1.95S441.065,355.856,440.935,355.206z"/>
	</g>
</g>
<g>
	<g>
		<path d="M221.08,89.321l-80.74-80.74c-0.002-0.002,0,0-0.002-0.002c-11.439-11.439-30.052-11.438-41.492,0L55.362,52.063
			c-11.438,11.439-11.438,30.053,0,41.492l80.741,80.741c5.542,5.541,12.909,8.593,20.747,8.593s15.205-3.052,20.747-8.593
			l43.483-43.484c5.542-5.541,8.593-12.909,8.593-20.746C229.673,102.23,226.621,94.861,221.08,89.321z M69.506,79.413
			c-3.641-3.641-3.641-9.566,0-13.207l43.484-43.484c1.82-1.821,4.211-2.731,6.603-2.731c2.391,0,4.783,0.91,6.603,2.731
			l20.311,20.311L89.816,99.724L69.506,79.413z M206.938,116.67l-43.484,43.484c-1.764,1.764-4.108,2.735-6.603,2.735
			c-2.494,0-4.839-0.971-6.603-2.735l-46.288-46.287l56.691-56.691l46.288,46.287c1.764,1.764,2.735,4.108,2.735,6.603
			C209.673,112.561,208.702,114.906,206.938,116.67z"/>
	</g>
</g>
<g>
</g>
<g>
</g>
<g>
</g>
<g>
</g>
<g>
</g>
<g>
</g>
<g>
</g>
<g>
</g>
<g>
</g>
<g>
</g>
<g>
</g>
<g>
</g>
<g>
</g>
<g>
</g>
<g>
</g>
</svg>
